<?xml version="1.0" encoding="UTF-8"?>
<svg version="1.1" xmlns="http://www.w3.org/2000/svg" width="3840" height="2160">
<path d="M0 0 C1.83373028 -0.00698237 3.66746034 -0.0140233 5.50119019 -0.02111816 C11.33022362 -0.04038995 17.15921942 -0.04529452 22.98828125 -0.046875 C23.98150768 -0.04746414 24.97473412 -0.04805328 25.99805832 -0.04866028 C56.01269522 -0.06122509 85.86658633 0.2818252 115.78155518 2.97851562 C118.30919919 3.20387553 120.83763888 3.4161813 123.36669922 3.625 C163.96132488 7.00657316 204.42439628 12.88915099 244.30078125 21.203125 C245.04120667 21.35738953 245.78163208 21.51165405 246.54449463 21.67059326 C321.89544936 37.43756356 395.37030196 60.89732401 465.30078125 93.203125 C466.61419358 93.80678039 467.92767293 94.41028999 469.24121094 95.01367188 C497.91668599 108.20693485 525.98685057 122.36315779 553.30078125 138.203125 C555.04228397 139.20482387 556.78379067 140.20651582 558.52542114 141.20799255 C573.58064088 149.8766629 588.30795529 158.90476289 602.77587891 168.53222656 C605.87352691 170.58214949 608.99587364 172.59158178 612.12280273 174.59643555 C647.65417179 197.38325815 681.61668967 222.94078187 713.72216797 250.32543945 C717.01741549 253.13362133 720.36056055 255.87003989 723.73828125 258.578125 C728.75253149 262.65403602 733.48120412 266.99165294 738.17944336 271.42333984 C741.09058789 274.167511 744.03226308 276.85787896 747.05615234 279.4777832 C759.56361955 290.39805205 771.35737232 302.09657717 783.0769043 313.84887695 C785.38930848 316.16671338 787.70711023 318.47905804 790.02539062 320.79101562 C791.52506082 322.29134564 793.02442131 323.7919853 794.5234375 325.29296875 C795.20269791 325.97020493 795.88195831 326.6474411 796.58180237 327.34519958 C800.47499157 331.2573108 804.18097849 335.27920512 807.78788757 339.45664978 C809.45938345 341.38621441 811.18409898 343.25351318 812.94921875 345.09765625 C813.55749512 345.73751465 814.16577148 346.37737305 814.79248047 347.03662109 C815.41396973 347.68969238 816.03545898 348.34276367 816.67578125 349.015625 C821.77846698 354.41397335 826.63126309 359.88556476 831.26171875 365.6953125 C833.36260031 368.27915534 835.5566469 370.7430602 837.80078125 373.203125 C842.5054614 378.37827316 846.90514468 383.7651534 851.30078125 389.203125 C852.31160892 390.43432587 853.32338174 391.66475118 854.3359375 392.89453125 C861.35918283 401.4441082 868.10821981 410.15351723 874.69238281 419.04443359 C876.38971196 421.32248221 878.10487975 423.58617912 879.82421875 425.84765625 C892.97034389 443.17118482 905.39241899 461.00761754 917.30078125 479.203125 C917.72101563 479.84314453 918.14125 480.48316406 918.57421875 481.14257812 C965.57309069 552.82281034 1003.62018824 629.13668549 1089.55078125 978.015625 C1089.63395599 979.03344055 1089.71713074 980.0512561 1089.80282593 981.09991455 C1090.0415544 984.05712333 1090.27425245 987.01472982 1090.50390625 989.97265625 C1090.60355431 991.23017952 1090.60355431 991.23017952 1090.70521545 992.5131073 C1091.94458425 1008.9281463 1092.46662692 1025.31918614 1092.50390625 1041.77734375 C1092.5108861 1043.70093812 1092.51792705 1045.62453228 1092.52502441 1047.54812622 C1092.54430148 1053.6622954 1092.54920029 1059.77642874 1092.55078125 1065.890625 C1092.55137039 1066.93136044 1092.55195953 1067.97209587 1092.55256653 1069.04436874 C1092.56481594 1099.68888233 1092.3166732 1130.1691379 1089.52539062 1160.70922852 C1089.29855493 1163.22784445 1089.08664253 1165.74731964 1088.87890625 1168.26757812 C1081.76599027 1253.95792852 1063.19318995 1338.31830919 986.19329834 1536.38555908 C985.30180218 1538.20104593 984.41346191 1540.01804646 983.52587891 1541.83544922 C976.10676088 1557.01274406 968.31917459 1571.88815052 959.85351562 1586.5078125 C958.33343393 1589.14644488 956.83679669 1591.7969279 955.34765625 1594.453125 C947.75016959 1607.97177096 939.60943213 1621.11206273 931.30078125 1634.203125 C930.61870605 1635.28303711 929.93663086 1636.36294922 929.23388672 1637.47558594 C922.32073741 1648.41858366 915.42269872 1659.32753487 907.7734375 1669.7734375 C905.32541974 1673.1288325 903.01252746 1676.56936122 900.69384766 1680.01489258 C894.69656437 1688.91457582 888.35849599 1697.44382261 881.70703125 1705.86328125 C878.4717203 1709.96128093 875.34608465 1714.13307946 872.23828125 1718.328125 C866.61513851 1725.89177378 860.69537145 1733.19253593 854.71386719 1740.47412109 C852.84457924 1742.76131827 851.00915524 1745.07458725 849.17578125 1747.390625 C844.81910597 1752.85014067 840.3004803 1758.16983111 835.76708984 1763.48242188 C834.2913571 1765.21418417 832.82118005 1766.95054694 831.3515625 1768.6875 C825.85670718 1775.1625187 820.25094462 1781.50485528 814.46044922 1787.71728516 C811.74854658 1790.62707123 809.08446085 1793.56470225 806.48828125 1796.578125 C803.73537782 1799.76960373 800.81599619 1802.73652205 797.78125 1805.66015625 C796.0824262 1807.34019872 796.0824262 1807.34019872 794.30078125 1810.203125 C793.64078125 1810.203125 792.98078125 1810.203125 792.30078125 1810.203125 C792.03160889 1810.79695984 791.76243652 1811.39079468 791.48510742 1812.00262451 C790.29969174 1814.20514934 789.10971993 1815.64762093 787.3515625 1817.41113281 C786.75754639 1818.01145325 786.16353027 1818.61177368 785.55151367 1819.23028564 C784.91189697 1819.86585388 784.27228027 1820.50142212 783.61328125 1821.15625 C782.95497314 1821.81647156 782.29666504 1822.47669312 781.6184082 1823.15692139 C780.22885833 1824.54783001 778.83678851 1825.93622508 777.44238281 1827.32226562 C775.30168839 1829.45222241 773.17190215 1831.59266996 771.04296875 1833.734375 C769.69204738 1835.08397539 768.34050607 1836.43295559 766.98828125 1837.78125 C766.34866455 1838.42491516 765.70904785 1839.06858032 765.05004883 1839.73175049 C760.53071036 1844.203125 760.53071036 1844.203125 758.30078125 1844.203125 C757.97078125 1845.193125 757.64078125 1846.183125 757.30078125 1847.203125 C755.69921875 1848.78125 755.69921875 1848.78125 753.67578125 1850.453125 C750.93218248 1852.77688481 748.31406329 1855.13193324 745.80078125 1857.703125 C742.13792003 1861.4150424 738.25433326 1864.80544365 734.30078125 1868.203125 C732.58291217 1869.69091759 730.86651937 1871.18040354 729.15014648 1872.66992188 C727.20181046 1874.35975693 725.25130817 1876.04706964 723.30078125 1877.734375 C720.68844084 1879.99603158 718.08469965 1882.26696215 715.48828125 1884.546875 C709.00226947 1890.23035452 702.4478637 1895.76475721 695.62939453 1901.04614258 C691.90022698 1903.93533724 688.23230463 1906.88632557 684.59204102 1909.88671875 C675.8388101 1917.09233956 666.80693193 1923.8580337 657.62841797 1930.51074219 C655.46005097 1932.08732285 653.30272877 1933.67770439 651.1484375 1935.2734375 C582.6289986 1985.75674998 506.30957396 2026.6784696 370.05078125 2079.453125 C368.83805542 2079.86667236 368.83805542 2079.86667236 367.60083008 2080.28857422 C352.49654725 2085.26714485 331.95091595 2085.96764893 317.30078125 2079.203125 C303.10348421 2070.96541221 295.13983013 2059.03469026 290.94648373 2043.33232045 C289.83748886 2037.95792307 289.88640329 2032.65130439 289.91551208 2027.18173218 C289.90765854 2025.27920651 289.90765854 2025.27920651 289.89964634 2023.33824599 C289.88559619 2019.84664044 289.88989391 2016.35526969 289.89735949 2012.86365294 C289.90212454 2009.0853789 289.889512 2005.307157 289.8789978 2001.52890015 C289.86305481 1994.98499495 289.85774399 1988.44115159 289.85952568 1981.89722824 C289.86191991 1972.40004796 289.84585304 1962.90296543 289.82507313 1953.40581079 C289.79156605 1937.94746826 289.76989757 1922.48913452 289.75708008 1907.03076172 C289.75631059 1906.10658544 289.7555411 1905.18240916 289.75474829 1904.23022754 C289.75164746 1900.48798036 289.74856463 1896.74573316 289.74550825 1893.00348594 C289.73700919 1882.75020585 289.7260987 1872.49692891 289.71411133 1862.24365234 C289.71304331 1861.327284 289.71197529 1860.41091565 289.71087491 1859.46677856 C289.69266984 1844.09017877 289.66660821 1828.71359939 289.63598019 1813.33701956 C289.61759682 1803.88784087 289.60652114 1794.43870841 289.60545827 1784.98951156 C289.60433964 1778.48522973 289.59624054 1771.98097933 289.58307462 1765.47671084 C289.57578556 1761.74603428 289.57144686 1758.01542654 289.57619286 1754.28474426 C289.59343371 1739.03235548 289.31253181 1723.83746276 288.39320374 1708.61196899 C288.35331734 1707.94032764 288.31343095 1707.26868628 288.27233588 1706.57669215 C285.47836589 1660.58940866 275.04293423 1612.55656949 248.30078125 1574.203125 C247.91680176 1573.65237305 247.53282227 1573.10162109 247.13720703 1572.53417969 C242.54013829 1566.02967049 237.52161456 1560.04598522 232.05078125 1554.26171875 C230.30078125 1552.203125 230.30078125 1552.203125 229.30078125 1549.203125 C228.64078125 1549.203125 227.98078125 1549.203125 227.30078125 1549.203125 C227.30078125 1548.543125 227.30078125 1547.883125 227.30078125 1547.203125 C226.64078125 1547.203125 225.98078125 1547.203125 225.30078125 1547.203125 C225.30078125 1546.543125 225.30078125 1545.883125 225.30078125 1545.203125 C224.40359375 1544.8009375 224.40359375 1544.8009375 223.48828125 1544.390625 C221.30230271 1543.20395094 219.88745531 1542.10713387 218.30078125 1540.203125 C218.30078125 1539.543125 218.30078125 1538.883125 218.30078125 1538.203125 C219.50984131 1538.0580249 220.71890137 1537.9129248 221.96459961 1537.76342773 C311.54957189 1526.94764713 398.1047031 1508.85595651 542.30078125 1425.203125 C543.42527919 1424.34569532 544.55030627 1423.48895929 545.67578125 1422.6328125 C552.93549645 1417.06819827 559.75412724 1411.1821245 566.41015625 1404.91015625 C568.70767176 1402.75856402 571.03047914 1400.68052659 573.42578125 1398.640625 C581.32827549 1391.79068285 588.55453144 1384.18240786 595.30078125 1376.203125 C596.120625 1375.26082031 596.94046875 1374.31851562 597.78515625 1373.34765625 C658.81823566 1302.86584939 687.82757549 1205.65077891 701.55078125 1089.390625 C701.63386536 1088.48535065 701.71694946 1087.58007629 701.80255127 1086.64736938 C703.90695568 1063.41350715 704.5438383 1040.27989945 704.55078125 1016.953125 C704.55122311 1016.26960339 704.55166496 1015.58608177 704.55212021 1014.88184738 C704.5592297 993.84531249 704.21828618 973.07538224 701.30078125 952.203125 C701.1291748 950.92743652 700.95756836 949.65174805 700.78076172 948.33740234 C690.095907 870.00739811 656.85160906 790.01185816 600.97265625 732.8203125 C600.3178125 732.14226563 599.66296875 731.46421875 598.98828125 730.765625 C598.43527344 730.23066406 597.88226562 729.69570313 597.3125 729.14453125 C595.35093679 725.38045049 597.07028413 720.97124839 598.23706055 717.08300781 C598.61258057 716.03467773 598.98810059 714.98634766 599.375 713.90625 C599.79257568 712.71370605 600.21015137 711.52116211 600.64038086 710.29248047 C600.86063934 709.66710388 601.08089783 709.04172729 601.30783081 708.3973999 C606.50079804 693.55935254 610.38318928 678.66458499 613.30078125 663.203125 C613.46658691 662.34702637 613.63239258 661.49092773 613.80322266 660.60888672 C615.91246981 649.42829088 616.76658432 638.16807373 617.48828125 626.828125 C617.53134399 626.15552643 617.57440674 625.48292786 617.61877441 624.78994751 C621.33766612 565.12253803 608.10893257 505.85485999 587.30078125 450.203125 C587.09850418 449.57517532 586.89622711 448.94722565 586.68782043 448.30024719 C585.51943277 445.01727911 584.81828563 443.46166274 581.6496582 441.87866211 C573.5453563 440.3827615 565.73018515 439.69422515 557.48828125 439.765625 C555.59867676 439.77807251 555.59867676 439.77807251 553.67089844 439.79077148 C473.76874737 441.20572639 385.1631034 492.59431106 320.17578125 535.078125 C319.2312207 535.69421631 318.28666016 536.31030762 317.31347656 536.94506836 C313.05049342 539.73041241 308.80464955 542.53491809 304.59375 545.3984375 C303.18391229 546.33381363 301.77377777 547.26874261 300.36328125 548.203125 C299.75532715 548.63093262 299.14737305 549.05874023 298.52099609 549.49951172 C293.87462517 552.53347899 290.49967675 552.16663518 285.30078125 551.203125 C282.6877226 550.60082425 280.11380348 549.96647524 277.52734375 549.26953125 C275.99176227 548.86803185 274.45594258 548.46744274 272.91992188 548.06762695 C271.70526245 547.74986801 271.70526245 547.74986801 270.46606445 547.4256897 C207.66158591 531.10663556 143.09000901 521.55775911 78.30078125 518.203125 C76.68816406 518.11635498 76.68816406 518.11635498 75.04296875 518.02783203 C-12.1306489 513.56044925 -99.73160572 520.90945998 -210.81640625 544.97265625 C-211.73511002 545.20518097 -212.65381378 545.43770569 -213.60035706 545.67727661 C-218.06235915 546.81150683 -222.518804 547.96372506 -226.96948242 549.14160156 C-228.57860924 549.55926035 -230.1877399 549.97690436 -231.796875 550.39453125 C-232.88952164 550.69228203 -232.88952164 550.69228203 -234.00424194 550.99604797 C-238.96602041 552.27255491 -242.25123994 552.50331165 -246.80126953 550.08666992 C-247.4920459 549.62365479 -248.18282227 549.16063965 -248.89453125 548.68359375 C-249.68239014 548.1623291 -250.47024902 547.64106445 -251.28198242 547.10400391 C-252.12092041 546.53858887 -252.9598584 545.97317383 -253.82421875 545.390625 C-255.63476909 544.19303082 -257.44598214 542.99643802 -259.2578125 541.80078125 C-260.17159668 541.19508301 -261.08538086 540.58938477 -262.02685547 539.96533203 C-284.51845258 525.13394632 -307.59960432 511.2569408 -331.69921875 499.203125 C-332.65763672 498.71730957 -333.61605469 498.23149414 -334.60351562 497.73095703 C-366.23152742 481.7549438 -399.35106023 468.15220564 -432.69921875 456.203125 C-434.11001709 455.69434814 -434.11001709 455.69434814 -435.54931641 455.17529297 C-468.1358303 443.53267612 -502.13811541 435.99985004 -536.69921875 442.203125 C-536.92508667 442.99662354 -536.92508667 442.99662354 -537.15551758 443.80615234 C-538.73916413 449.23178499 -540.49113466 454.58787024 -542.3359375 459.9296875 C-558.28132468 506.24047942 -568.97134393 553.91264006 -568.88671875 603.140625 C-568.88578217 603.85578278 -568.88484558 604.57094055 -568.88388062 605.30776978 C-568.77740337 643.17537818 -562.56699174 680.44065304 -549.1003418 715.90991211 C-548.77203369 716.79686768 -548.44372559 717.68382324 -548.10546875 718.59765625 C-547.80962891 719.36956299 -547.51378906 720.14146973 -547.20898438 720.93676758 C-546.58477852 723.71191267 -546.87767335 725.49286066 -547.69921875 728.203125 C-549.81640625 730.82421875 -549.81640625 730.82421875 -552.57421875 733.640625 C-558.27973074 739.61760516 -563.36412297 745.9432922 -568.38476562 752.49902344 C-569.6140328 754.09268704 -570.86674844 755.66818645 -572.12109375 757.2421875 C-588.98585199 778.57114645 -602.45168225 802.00634444 -614.69921875 826.203125 C-615.07433594 826.93724609 -615.44945312 827.67136719 -615.8359375 828.42773438 C-634.44478831 865.11069891 -644.96735921 905.96424639 -650.94921875 946.453125 C-651.10044189 947.46721436 -651.25166504 948.48130371 -651.4074707 949.52612305 C-654.37185362 970.98651458 -655.04583233 992.45170445 -654.95716858 1014.09239578 C-654.94908079 1016.1761703 -654.94413982 1018.25993398 -654.93981934 1020.34371948 C-654.89050769 1041.02464186 -654.55962543 1061.59278745 -652.69921875 1082.203125 C-652.57402086 1083.65979978 -652.44919693 1085.11650673 -652.32470703 1086.57324219 C-648.07829184 1135.48592157 -639.24602175 1183.58981281 -623.69921875 1230.203125 C-623.33328613 1231.31574707 -622.96735352 1232.42836914 -622.59033203 1233.57470703 C-617.35469954 1249.43878907 -611.40519459 1264.90386275 -604.69921875 1280.203125 C-604.26351563 1281.20085937 -603.8278125 1282.19859375 -603.37890625 1283.2265625 C-586.74936851 1321.05632964 -565.23893034 1355.25459143 -537.12890625 1385.55078125 C-535.19197917 1387.66520808 -533.33424282 1389.80396741 -531.51171875 1392.015625 C-528.86734883 1395.15249935 -525.8810632 1397.7436058 -522.7578125 1400.39453125 C-520.69597368 1402.20597598 -518.79545163 1404.10693869 -516.88671875 1406.078125 C-512.66215079 1410.34339207 -508.12961123 1414.11642572 -503.42333984 1417.83837891 C-502.19150537 1418.81345038 -500.96303022 1419.79277189 -499.73681641 1420.77490234 C-432.95001867 1474.21978256 -350.75804082 1506.33884683 -169.69921875 1538.203125 C-170.80733949 1541.52748721 -171.55458502 1542.12997832 -174.19921875 1544.265625 C-200.73790794 1566.93899889 -217.3216992 1602.48772315 -227.26171875 1635.265625 C-227.55973389 1636.23193848 -227.85774902 1637.19825195 -228.16479492 1638.19384766 C-229.98547655 1644.50254696 -231.07065863 1650.65740927 -231.8125 1657.16015625 C-234.62060364 1680.09757592 -234.62060364 1680.09757592 -240.09912109 1685.62402344 C-246.06874602 1689.39919076 -252.55531249 1691.0391045 -259.41308594 1692.47607422 C-263.46731849 1693.37306564 -267.28149434 1694.69767573 -271.19091797 1696.07983398 C-302.69314008 1707.01517336 -336.70689574 1710.36768624 -369.87695312 1710.44335938 C-372.43262342 1710.453062 -374.9874855 1710.48422121 -377.54296875 1710.515625 C-392.54230352 1710.61240071 -407.4052284 1709.07714245 -421.76171875 1704.515625 C-422.57987061 1704.26216309 -423.39802246 1704.00870117 -424.2409668 1703.74755859 C-433.04077688 1700.92355563 -441.401587 1697.25065523 -449.69921875 1693.203125 C-450.34697266 1692.89149414 -450.99472656 1692.57986328 -451.66210938 1692.25878906 C-491.66363579 1672.79357667 -522.16628293 1638.00545202 -544.57421875 1600.390625 C-555.62946186 1581.8378101 -567.77425065 1564.84815735 -582.69921875 1549.203125 C-583.4984375 1548.35105469 -584.29765625 1547.49898437 -585.12109375 1546.62109375 C-591.76278847 1539.72979285 -599.05828463 1533.92652268 -606.69921875 1528.203125 C-607.25061523 1527.78562988 -607.80201172 1527.36813477 -608.37011719 1526.93798828 C-618.63790052 1519.20186103 -629.56879864 1512.61613761 -640.69921875 1506.203125 C-641.72281494 1505.61072021 -641.72281494 1505.61072021 -642.76708984 1505.00634766 C-656.10363277 1497.36260529 -670.5453371 1491.08526278 -685.69921875 1488.203125 C-686.37017578 1488.06922363 -687.04113281 1487.93532227 -687.73242188 1487.79736328 C-708.15095613 1483.82709273 -736.29035126 1480.39366284 -754.69921875 1492.203125 C-757.59133039 1494.87832827 -758.53826142 1496.41443409 -759.32421875 1500.265625 C-757.71673302 1510.39278512 -751.40590599 1518.73564427 -744.69921875 1526.203125 C-743.90902344 1527.08742188 -743.11882812 1527.97171875 -742.3046875 1528.8828125 C-733.08154776 1538.64523627 -722.14015838 1545.83623801 -710.44921875 1552.328125 C-698.89590355 1558.78593044 -689.21448115 1567.11507846 -679.69921875 1576.203125 C-678.84457031 1577.00492188 -677.98992187 1577.80671875 -677.109375 1578.6328125 C-670.73702201 1584.7736266 -665.35321226 1591.46642179 -660.01220703 1598.49316406 C-658.83525947 1600.02595334 -657.6266013 1601.53427076 -656.4140625 1603.0390625 C-642.85213304 1620.02055221 -630.50962137 1638.81147415 -620.69921875 1658.203125 C-620.12179932 1659.33935303 -620.12179932 1659.33935303 -619.53271484 1660.49853516 C-611.94294244 1675.5944717 -605.57801542 1691.2204773 -599.10595703 1706.81591797 C-577.99973979 1757.63640702 -542.92402255 1795.81093821 -491.39526367 1817.20385742 C-455.54147828 1831.63724237 -417.09064212 1836.56313018 -378.69921875 1839.203125 C-377.89983887 1839.26097168 -377.10045898 1839.31881836 -376.27685547 1839.37841797 C-333.3661372 1842.36682716 -291.50074695 1838.67502767 -249.2019043 1831.62084961 C-248.37928856 1831.48370293 -247.55667282 1831.34655624 -246.70912933 1831.2052536 C-244.70581847 1830.87125474 -242.70251756 1830.53719617 -240.69921875 1830.203125 C-239.89207617 1866.10261563 -239.44525465 1901.99833793 -239.18181002 1937.90568686 C-239.14690213 1942.6420555 -239.10984215 1947.37840379 -239.0715332 1952.11474609 C-239.06609666 1952.78794404 -239.06066012 1953.46114198 -239.05505884 1954.15473986 C-239.04410629 1955.51058262 -239.03315219 1956.86642537 -239.02219653 1958.2222681 C-238.92456927 1970.316206 -238.83989988 1982.41016366 -238.76755333 1994.50428009 C-238.73084458 2000.35313023 -238.68014652 2006.20126787 -238.5983305 2012.04966354 C-238.56826126 2014.26829743 -238.54437865 2016.48689265 -238.52320862 2018.70562744 C-238.4988542 2021.14405469 -238.46383743 2023.58242387 -238.41319275 2026.02044678 C-238.30676351 2041.04973973 -242.24059005 2057.42982702 -252.921875 2068.62109375 C-265.1283317 2079.48618158 -276.94261905 2083.36488298 -293.01171875 2083.515625 C-293.99978516 2083.54462891 -294.98785156 2083.57363281 -296.00585938 2083.60351562 C-310.86550234 2083.72695036 -324.74857951 2078.39946129 -338.51171875 2073.328125 C-339.27834839 2073.04822723 -340.04497803 2072.76832947 -340.83483887 2072.47994995 C-380.10506795 2058.13772238 -418.32954309 2041.66906429 -455.79760742 2023.14123535 C-457.63070242 2022.23692575 -459.46610567 2021.3375376 -461.30273438 2020.44042969 C-475.72465163 2013.39307761 -489.83304833 2005.95880682 -503.72607422 1997.91845703 C-506.85635567 1996.11246611 -509.99749773 1994.32649982 -513.140625 1992.54296875 C-542.63865985 1975.7527196 -571.21488794 1957.12877486 -598.69921875 1937.203125 C-599.4454248 1936.66268555 -600.19163086 1936.12224609 -600.96044922 1935.56542969 C-621.26400656 1920.81982938 -641.02784324 1905.36615447 -660.12060547 1889.08081055 C-663.41585299 1886.27262867 -666.75899805 1883.53621011 -670.13671875 1880.828125 C-675.34760989 1876.60100092 -680.23814417 1872.06933435 -685.10522461 1867.45556641 C-688.14910476 1864.48589931 -688.14910476 1864.48589931 -691.69921875 1862.203125 C-691.69921875 1861.543125 -691.69921875 1860.883125 -691.69921875 1860.203125 C-692.26382812 1859.96722656 -692.8284375 1859.73132812 -693.41015625 1859.48828125 C-696.21993838 1857.91077558 -698.09540926 1855.96261214 -700.32421875 1853.640625 C-703.20992556 1850.51270446 -703.20992556 1850.51270446 -706.69921875 1848.203125 C-706.69921875 1847.543125 -706.69921875 1846.883125 -706.69921875 1846.203125 C-707.28737366 1845.93963257 -707.87552856 1845.67614014 -708.48150635 1845.40466309 C-710.79589006 1844.15074929 -712.3234999 1842.83250924 -714.18261719 1840.97851562 C-714.84299988 1840.32443726 -715.50338257 1839.67035889 -716.18377686 1838.99645996 C-716.88496643 1838.29122192 -717.58615601 1837.58598389 -718.30859375 1836.859375 C-719.03540344 1836.13447876 -719.76221313 1835.40958252 -720.51104736 1834.66271973 C-722.04319154 1833.13193489 -723.5728195 1831.59862803 -725.10009766 1830.06298828 C-727.44733506 1827.7050173 -729.80507653 1825.35792954 -732.1640625 1823.01171875 C-733.65038157 1821.52407864 -735.13608044 1820.03581856 -736.62109375 1818.546875 C-737.33038025 1817.84163696 -738.03966675 1817.13639893 -738.77044678 1816.40979004 C-739.41822083 1815.75571167 -740.06599487 1815.1016333 -740.73339844 1814.42773438 C-741.30757507 1813.85196655 -741.88175171 1813.27619873 -742.47332764 1812.6829834 C-743.69921875 1811.203125 -743.69921875 1811.203125 -743.69921875 1809.203125 C-744.35921875 1809.203125 -745.01921875 1809.203125 -745.69921875 1809.203125 C-745.69921875 1808.543125 -745.69921875 1807.883125 -745.69921875 1807.203125 C-746.35921875 1807.203125 -747.01921875 1807.203125 -747.69921875 1807.203125 C-749.16650391 1805.7277832 -749.16650391 1805.7277832 -750.86328125 1803.69140625 C-753.296342 1800.82975927 -755.75944214 1798.03101671 -758.34765625 1795.30859375 C-758.95585205 1794.66881592 -759.56404785 1794.02903809 -760.19067383 1793.36987305 C-760.81224365 1792.71672119 -761.43381348 1792.06356934 -762.07421875 1791.390625 C-767.15657413 1786.01411 -771.98316029 1780.5643691 -776.59375 1774.77734375 C-778.87122721 1771.99282152 -781.26233883 1769.34898697 -783.69921875 1766.703125 C-788.11669573 1761.89268228 -792.26861463 1756.92342112 -796.36669922 1751.84033203 C-797.88143479 1749.97924432 -799.4159366 1748.13555294 -800.953125 1746.29296875 C-807.77645248 1738.10193854 -814.36483593 1729.79513919 -820.70703125 1721.2265625 C-823.26625433 1717.76983996 -825.87632012 1714.35522974 -828.50219727 1710.94897461 C-839.72734293 1696.38394991 -850.40533756 1681.43902546 -860.69921875 1666.203125 C-861.2312793 1665.41599121 -861.76333984 1664.62885742 -862.31152344 1663.81787109 C-885.15736832 1629.94458868 -905.95710239 1595.06764724 -925.18798828 1559.02587891 C-926.44019965 1556.68693417 -927.70282589 1554.35459971 -928.9765625 1552.02734375 C-965.43616708 1484.99833656 -991.78621573 1410.93400672 -1010.69921875 1337.203125 C-1010.89839905 1336.42702881 -1011.09757935 1335.65093262 -1011.30279541 1334.85131836 C-1025.3781763 1279.75274466 -1034.69504019 1223.33760959 -1039.48632812 1166.67755127 C-1039.6986547 1164.20968098 -1039.92428242 1161.74331687 -1040.15234375 1159.27685547 C-1045.64573383 1098.72884689 -1045.65453178 1035.42799718 -1039.95245361 974.89672852 C-1039.68699342 972.07308685 -1039.43268195 969.24856862 -1039.17919922 966.42382812 C-1030.93306425 875.74994211 -1011.36953488 786.39442657 -935.69921875 597.203125 C-935.18278809 596.13707031 -934.66635742 595.07101562 -934.13427734 593.97265625 C-918.26171933 561.36437997 -899.99000947 529.894717 -880.69921875 499.203125 C-879.67731445 497.57552246 -879.67731445 497.57552246 -878.63476562 495.91503906 C-871.2412525 484.1709686 -863.72127403 472.56757182 -855.6171875 461.30078125 C-852.98970209 457.64078382 -850.46620928 453.91711896 -847.95092773 450.17944336 C-841.4355385 440.51147797 -834.46300872 431.30314927 -827.23291016 422.16162109 C-825.15054075 419.50247315 -823.1426271 416.7954524 -821.13671875 414.078125 C-816.03657625 407.23044764 -810.62245866 400.6435195 -805.20800781 394.04394531 C-803.88598682 392.43099413 -802.56948799 390.81352007 -801.25390625 389.1953125 C-795.96468842 382.69279739 -790.57548136 376.2796989 -785.140625 369.89892578 C-783.69722259 368.20077654 -782.26040452 366.49722307 -780.82421875 364.79296875 C-774.02822885 356.75917437 -766.96022756 349.02404732 -759.73144531 341.37890625 C-758.23658735 339.77845284 -756.75622909 338.16442551 -755.28417969 336.54296875 C-746.66722735 327.0573233 -737.64230682 317.99370389 -728.57080078 308.94433594 C-725.93665893 306.31559091 -723.30795371 303.68149322 -720.6796875 301.046875 C-718.98339372 299.35124151 -717.28679005 297.65591797 -715.58984375 295.9609375 C-714.81570129 295.18477081 -714.04155884 294.40860413 -713.24395752 293.60891724 C-709.10488791 289.48744371 -704.88655899 285.52241241 -700.45289612 281.71868896 C-697.69191128 279.33258922 -695.04767526 276.82439964 -692.38671875 274.328125 C-687.54052676 269.81450099 -682.54934829 265.56469486 -677.3828125 261.41796875 C-674.54683334 259.07735713 -671.8406903 256.6322229 -669.13671875 254.140625 C-664.95481083 250.29682878 -660.66400393 246.68482335 -656.19921875 243.17578125 C-653.6681637 241.17862063 -651.18281879 239.13390979 -648.69921875 237.078125 C-634.73036352 225.64014382 -620.29133466 214.82839385 -605.69921875 204.203125 C-604.90918457 203.6261084 -604.11915039 203.0490918 -603.30517578 202.45458984 C-594.23082464 195.8305552 -585.09642236 189.36420551 -575.69921875 183.203125 C-574.01594899 182.07096136 -572.33271995 180.93873639 -570.65039062 179.80517578 C-543.15099751 161.32764239 -514.79944505 144.03719588 -485.69921875 128.203125 C-485.10814331 127.88083923 -484.51706787 127.55855347 -483.90808105 127.22650146 C-410.6040606 87.27927514 -332.83416592 55.54852695 -174.69921875 17.203125 C-173.89707947 17.0615094 -173.09494019 16.9198938 -172.26849365 16.77398682 C-132.13625392 9.70748068 -91.99996552 5.01326545 -51.3671875 2 C-50.48508102 1.93356796 -49.60297455 1.86713593 -48.69413757 1.7986908 C-32.46596954 0.6286152 -16.26822308 0.03875671 0 0 Z " fill="#000000" transform="translate(1894.69921875,37.796875)"/>
</svg>
